<?xml version="1.0" standalone="no"?>
<!DOCTYPE svg PUBLIC "-//W3C//DTD SVG 20010904//EN"
 "http://www.w3.org/TR/2001/REC-SVG-20010904/DTD/svg10.dtd">
<svg version="1.0" xmlns="http://www.w3.org/2000/svg"
 width="350.000000pt" height="110.000000pt" viewBox="0 0 350.000000 110.000000"
 preserveAspectRatio="xMidYMid meet">

<g transform="translate(0.000000,110.000000) scale(0.100000,-0.100000)"
fill="#000000" stroke="none">
<path d="M447 963 c-10 -9 -8 -33 2 -33 5 0 11 9 14 20 5 20 -3 26 -16 13z"/>
<path d="M363 933 c9 -9 19 -14 23 -11 10 10 -6 28 -24 28 -15 0 -15 -1 1 -17z"/>
<path d="M520 935 c-7 -9 -10 -18 -7 -22 8 -7 37 15 37 28 0 14 -16 11 -30 -6z"/>
<path d="M295 901 c-3 -5 4 -13 16 -16 28 -9 36 1 10 14 -12 7 -22 7 -26 2z"/>
<path d="M570 890 c-12 -8 -11 -10 7 -10 12 0 25 5 28 10 8 13 -15 13 -35 0z"/>
<path d="M370 861 c0 -11 59 -20 65 -11 3 4 2 10 -2 14 -10 9 -63 7 -63 -3z"/>
<path d="M465 860 c-4 -6 8 -10 29 -10 20 0 36 5 36 10 0 6 -13 10 -29 10 -17
0 -33 -4 -36 -10z"/>
<path d="M275 830 c3 -5 15 -10 26 -10 10 0 19 5 19 10 0 6 -12 10 -26 10 -14
0 -23 -4 -19 -10z"/>
<path d="M440 825 c0 -8 5 -15 10 -15 6 0 10 7 10 15 0 8 -4 15 -10 15 -5 0
-10 -7 -10 -15z"/>
<path d="M580 830 c0 -5 11 -10 25 -10 14 0 25 5 25 10 0 6 -11 10 -25 10 -14
0 -25 -4 -25 -10z"/>
<path d="M304 775 c-18 -15 -18 -15 5 -13 14 2 26 9 29 16 5 17 -10 15 -34 -3z"/>
<path d="M400 780 c0 -5 23 -10 50 -10 28 0 50 5 50 10 0 6 -22 10 -50 10 -27
0 -50 -4 -50 -10z"/>
<path d="M574 765 c10 -8 23 -12 29 -8 11 7 -12 23 -33 23 -12 -1 -11 -4 4
-15z"/>
<path d="M129 713 c-27 -29 -38 -53 -47 -97 -8 -38 -8 -63 -2 -71 5 -6 7 -45
5 -87 -3 -44 -1 -80 5 -83 5 -3 7 -19 4 -34 -3 -16 -1 -32 5 -35 5 -4 8 -13 4
-21 -3 -8 0 -15 6 -15 6 0 11 -7 11 -15 0 -25 50 -63 109 -81 50 -16 54 -16
63 -1 18 32 138 19 138 -15 0 -10 5 -16 10 -13 17 10 11 52 -7 60 -20 8 -154
34 -197 39 -51 5 -61 32 -60 168 0 74 -3 126 -10 130 -6 4 -6 11 2 20 8 11 8
18 1 25 -7 7 -8 17 -3 25 5 7 10 27 11 43 1 17 5 45 9 63 9 44 -12 42 -57 -5z"/>
<path d="M297 732 c-60 -3 -68 -5 -62 -20 4 -9 10 -110 12 -224 4 -149 9 -211
18 -218 18 -15 353 -14 371 1 11 9 14 51 14 211 0 119 4 207 10 219 8 14 8 21
-2 24 -16 6 -269 11 -361 7z m331 -235 l-3 -212 -49 0 c-31 -1 -50 4 -53 12
-7 18 -23 16 -23 -2 0 -22 -21 -18 -27 5 -3 11 -9 20 -13 20 -5 0 -6 -8 -3
-19 4 -16 -2 -19 -41 -19 -48 -1 -59 10 -28 27 15 9 15 10 -5 11 -12 0 -23 -7
-25 -16 -2 -11 -16 -18 -45 -20 l-43 -4 0 215 0 215 180 -1 180 0 -2 -212z"/>
<path d="M315 677 c-9 -5 -12 -18 -8 -42 3 -19 1 -40 -4 -47 -8 -12 -9 -173 0
-226 2 -12 11 -30 21 -40 17 -16 18 -16 7 5 -18 35 -14 74 9 80 11 3 20 11 20
18 0 8 3 20 6 28 3 9 -3 16 -16 20 -15 4 -20 13 -20 34 0 15 -3 47 -6 71 -3
23 -3 53 0 66 6 24 7 24 119 22 63 -2 119 -6 124 -9 9 -6 11 -44 4 -144 -2
-32 -16 -29 -50 9 -16 18 -33 29 -38 25 -4 -5 2 -16 13 -26 12 -9 27 -33 34
-53 8 -20 22 -39 32 -41 23 -6 25 -63 2 -95 -8 -12 -11 -22 -6 -22 21 0 33 31
35 87 2 32 6 64 10 71 5 6 4 12 -2 12 -5 0 -9 19 -8 43 1 23 0 69 -1 102 l-2
60 -131 0 c-72 0 -137 -3 -144 -8z"/>
<path d="M340 612 c0 -24 30 -38 42 -20 12 19 4 33 -20 36 -16 3 -22 -2 -22
-16z"/>
<path d="M515 610 c4 -6 1 -17 -5 -25 -9 -11 -9 -15 -1 -15 6 0 11 4 11 9 0 5
10 11 23 15 18 5 20 8 7 16 -20 13 -43 13 -35 0z"/>
<path d="M377 532 c-18 -19 -23 -42 -9 -42 4 0 13 9 20 20 15 25 32 26 32 3 0
-10 7 -26 14 -36 13 -16 14 -16 30 7 23 36 20 46 -13 46 -17 0 -33 5 -36 10
-9 15 -20 12 -38 -8z"/>
<path d="M714 708 c17 -84 27 -178 18 -178 -4 0 -8 -53 -9 -117 -2 -136 -7
-162 -37 -168 -24 -5 -113 -18 -138 -21 -37 -3 -79 -27 -74 -41 4 -8 6 -22 6
-31 0 -12 4 -9 13 8 16 31 54 37 100 15 38 -18 98 -15 124 6 41 34 63 57 63
68 0 6 4 11 9 11 6 0 10 8 11 18 3 55 8 89 13 102 3 8 5 44 4 80 -2 36 1 70 6
77 5 7 3 38 -4 75 -13 68 -56 128 -92 128 -16 0 -18 -5 -13 -32z"/>
</g>
</svg>
